<svg id="svg" xmlns="http://www.w3.org/2000/svg" xmlns:xlink="http://www.w3.org/1999/xlink" width="400" height="400" viewBox="0, 0, 400,400" version="1.1"><g id="svgg"><path id="path0" d="M192.600 3.791 C 189.520 4.050,186.709 4.393,186.354 4.553 C 184.605 5.341,183.112 10.167,182.540 16.878 C 182.376 18.801,182.097 19.751,181.547 20.248 C 180.061 21.593,179.743 20.318,178.899 9.600 L 178.600 5.800 177.200 5.838 C 175.796 5.876,172.340 6.435,168.600 7.228 C 167.500 7.461,165.924 7.749,165.097 7.868 C 164.271 7.987,163.495 8.245,163.374 8.442 C 163.252 8.639,162.634 8.800,162.000 8.800 C 161.366 8.800,160.736 8.980,160.600 9.200 C 160.464 9.420,159.834 9.600,159.200 9.600 C 158.566 9.600,157.936 9.780,157.800 10.000 C 157.664 10.220,157.124 10.400,156.600 10.400 C 156.076 10.400,155.536 10.580,155.400 10.800 C 155.264 11.020,154.634 11.200,154.000 11.200 C 153.366 11.200,152.736 11.380,152.600 11.600 C 152.464 11.820,151.924 12.000,151.400 12.000 C 150.876 12.000,150.336 12.180,150.200 12.400 C 150.064 12.620,149.601 12.800,149.171 12.800 C 148.741 12.800,148.077 12.959,147.695 13.153 C 146.787 13.615,145.336 14.202,143.600 14.809 C 142.830 15.078,141.120 15.788,139.800 16.386 C 138.480 16.983,136.770 17.720,136.000 18.023 C 135.230 18.326,132.717 19.525,130.416 20.687 C 128.115 21.849,126.000 22.800,125.716 22.800 C 125.432 22.800,125.200 22.938,125.200 23.106 C 125.200 23.274,124.525 23.718,123.700 24.094 C 121.587 25.055,119.894 26.099,119.312 26.800 C 118.706 27.530,118.595 26.889,122.053 42.600 C 122.376 44.070,122.760 45.879,123.410 49.000 C 123.548 49.660,123.814 50.560,124.003 51.000 C 124.191 51.440,124.456 52.430,124.592 53.200 C 124.727 53.970,124.939 55.187,125.063 55.904 C 125.187 56.621,125.449 57.306,125.644 57.427 C 125.840 57.548,126.000 58.256,126.000 59.000 C 126.000 59.744,126.180 60.464,126.400 60.600 C 126.620 60.736,126.800 61.366,126.800 62.000 C 126.800 62.634,126.980 63.264,127.200 63.400 C 127.420 63.536,127.600 64.166,127.600 64.800 C 127.600 65.434,127.780 66.064,128.000 66.200 C 128.220 66.336,128.400 66.851,128.400 67.344 C 128.400 67.837,128.595 68.435,128.834 68.674 C 129.571 69.411,129.100 70.986,128.100 71.128 C 127.516 71.211,127.200 71.049,127.200 70.666 C 127.200 70.157,126.660 68.902,125.150 65.905 C 124.957 65.523,124.800 64.848,124.800 64.405 C 124.800 63.962,124.620 63.600,124.400 63.600 C 124.180 63.600,124.000 63.251,124.000 62.824 C 124.000 62.397,123.820 61.936,123.600 61.800 C 123.380 61.664,123.200 61.201,123.200 60.771 C 123.200 60.016,123.056 59.626,122.062 57.705 C 121.808 57.213,121.600 56.459,121.600 56.029 C 121.600 55.599,121.420 55.136,121.200 55.000 C 120.980 54.864,120.800 54.324,120.800 53.800 C 120.800 53.276,120.620 52.736,120.400 52.600 C 120.180 52.464,120.000 52.001,120.000 51.571 C 120.000 51.141,119.838 50.477,119.641 50.095 C 119.444 49.713,118.882 48.050,118.393 46.400 C 117.904 44.750,117.367 42.950,117.200 42.400 C 117.033 41.850,116.516 40.140,116.051 38.600 C 113.765 31.030,113.754 31.004,112.862 30.872 C 112.388 30.802,112.000 30.925,112.000 31.145 C 112.000 31.366,111.641 31.660,111.202 31.799 C 110.764 31.938,110.179 32.266,109.902 32.526 C 109.626 32.787,108.230 33.803,106.800 34.784 C 104.177 36.583,99.382 40.240,96.800 42.409 C 96.030 43.057,95.055 43.834,94.632 44.137 C 93.795 44.739,93.634 47.794,94.400 48.560 C 94.620 48.780,94.800 49.363,94.800 49.856 C 94.800 50.349,94.980 50.864,95.200 51.000 C 96.034 51.515,95.670 54.000,94.760 54.000 C 93.966 54.000,90.400 50.677,90.400 49.936 C 90.400 46.806,77.212 60.032,69.355 71.042 L 67.487 73.660 68.418 75.330 C 68.930 76.249,70.126 78.217,71.075 79.704 C 72.955 82.651,73.146 83.382,72.138 83.769 C 71.463 84.027,71.236 83.863,67.481 80.400 C 64.838 77.963,63.445 78.510,62.136 82.500 C 62.010 82.885,61.781 83.200,61.628 83.200 C 61.475 83.200,61.102 83.830,60.800 84.600 C 60.498 85.370,60.104 86.000,59.925 86.000 C 59.746 86.000,59.600 86.360,59.600 86.800 C 59.600 87.240,59.420 87.600,59.200 87.600 C 58.980 87.600,58.800 87.960,58.800 88.400 C 58.800 88.840,58.620 89.200,58.400 89.200 C 58.180 89.200,58.000 89.560,58.000 90.000 C 58.000 90.440,57.820 90.800,57.600 90.800 C 57.380 90.800,57.200 91.160,57.200 91.600 C 57.200 92.040,57.020 92.400,56.800 92.400 C 56.580 92.400,56.400 92.636,56.400 92.925 C 56.400 93.214,55.972 94.339,55.449 95.425 C 54.926 96.511,53.743 99.380,52.819 101.800 C 51.896 104.220,50.992 106.560,50.810 107.000 C 50.376 108.054,49.887 109.563,48.801 113.200 C 48.308 114.850,47.760 116.560,47.582 117.000 C 47.405 117.440,47.169 118.250,47.058 118.800 C 46.947 119.350,46.648 120.520,46.395 121.400 C 46.141 122.280,45.847 123.540,45.740 124.200 C 45.633 124.860,45.389 125.760,45.198 126.200 C 45.006 126.640,44.756 127.630,44.641 128.400 C 44.527 129.170,44.235 130.790,43.993 132.000 C 43.751 133.210,43.464 135.010,43.356 136.000 C 43.247 136.990,42.996 138.160,42.798 138.600 C 42.419 139.443,42.144 141.680,41.756 147.070 L 41.520 150.339 43.342 150.612 C 47.346 151.213,47.349 152.819,43.349 154.047 L 40.923 154.791 40.663 159.296 C 40.203 167.279,40.344 182.984,40.880 183.520 C 41.144 183.784,41.914 184.000,42.591 184.000 C 45.990 184.000,46.330 185.854,43.300 187.871 L 41.000 189.402 41.033 192.401 C 41.063 195.195,41.520 200.008,42.439 207.200 C 42.649 208.850,42.922 211.190,43.046 212.400 C 43.169 213.610,43.435 214.771,43.635 214.980 C 43.836 215.189,44.000 216.213,44.000 217.256 C 44.000 218.299,44.157 219.250,44.348 219.368 C 44.540 219.486,44.805 220.442,44.938 221.492 C 45.071 222.541,45.375 224.300,45.615 225.400 C 45.855 226.500,46.149 228.076,46.268 228.903 C 46.387 229.729,46.645 230.505,46.842 230.626 C 47.039 230.748,47.200 231.377,47.200 232.024 C 47.200 233.481,47.936 233.546,49.200 232.200 C 51.667 229.574,52.454 231.582,50.823 236.334 C 49.532 240.093,49.375 241.176,49.959 242.305 C 50.156 242.687,50.697 244.260,51.161 245.800 C 53.297 252.888,57.308 264.642,57.738 265.072 C 57.882 265.216,58.000 265.666,58.000 266.072 C 58.000 266.478,58.159 267.123,58.353 267.505 C 58.548 267.887,58.929 268.740,59.200 269.400 C 59.471 270.060,59.822 270.870,59.979 271.200 C 60.137 271.530,60.515 272.655,60.820 273.700 C 61.536 276.151,61.972 276.151,61.533 273.700 C 59.873 264.436,59.804 263.530,60.681 262.448 L 61.445 261.504 62.070 262.458 C 62.414 262.982,62.796 264.579,62.921 266.006 C 63.045 267.433,63.351 269.410,63.602 270.400 C 63.853 271.390,64.146 272.830,64.254 273.600 C 64.361 274.370,64.608 275.360,64.802 275.800 C 64.996 276.240,65.246 277.320,65.358 278.200 C 65.631 280.336,66.752 286.758,67.559 290.800 C 68.200 294.013,68.609 295.756,69.716 300.000 C 72.183 309.458,72.218 321.107,69.803 328.966 C 68.720 332.489,69.214 331.882,73.678 324.200 C 77.911 316.915,83.334 303.667,84.976 296.600 C 85.334 295.060,85.845 293.080,86.112 292.200 C 86.458 291.060,86.614 285.477,86.653 272.800 C 86.724 250.103,87.405 243.098,90.047 237.905 C 90.241 237.523,90.400 236.938,90.400 236.605 C 90.400 236.272,90.580 236.000,90.800 236.000 C 91.020 236.000,91.200 235.774,91.200 235.497 C 91.200 234.408,99.794 227.200,101.093 227.200 C 101.279 227.200,101.991 226.705,102.677 226.100 L 103.925 225.000 103.527 219.400 C 103.249 215.487,103.267 211.330,103.587 205.600 C 104.242 193.862,104.779 189.695,106.822 180.500 C 107.054 179.455,107.344 178.013,107.466 177.296 C 107.588 176.579,107.849 175.894,108.044 175.773 C 108.240 175.652,108.400 175.171,108.400 174.705 C 108.400 173.804,109.065 171.461,109.649 170.305 C 109.842 169.923,110.000 169.377,110.000 169.091 C 110.000 165.587,121.678 143.086,125.480 139.265 C 125.773 138.971,126.496 138.071,127.088 137.265 C 128.553 135.271,138.571 125.276,140.800 123.586 C 141.790 122.835,142.690 122.117,142.800 121.991 C 142.910 121.865,143.630 121.329,144.400 120.800 C 145.170 120.271,145.890 119.712,146.000 119.558 C 146.360 119.053,154.908 113.989,157.383 112.815 C 162.209 110.526,165.228 109.200,165.615 109.200 C 165.833 109.200,166.323 109.041,166.705 108.847 C 167.087 108.652,167.895 108.292,168.500 108.047 C 169.105 107.801,170.005 107.429,170.500 107.220 C 171.667 106.728,175.041 105.602,176.700 105.153 C 177.415 104.959,178.675 104.608,179.500 104.373 C 180.325 104.139,181.720 103.771,182.600 103.555 C 183.480 103.340,184.830 103.000,185.600 102.801 C 203.296 98.223,227.367 97.625,248.800 101.231 C 254.336 102.162,257.917 102.910,263.900 104.382 C 267.652 105.305,268.666 105.566,270.200 106.001 C 271.080 106.251,272.250 106.547,272.800 106.658 C 273.350 106.769,274.160 107.004,274.600 107.179 C 275.040 107.354,277.200 108.069,279.400 108.767 C 281.600 109.465,283.760 110.190,284.200 110.378 C 284.640 110.566,288.306 112.033,292.347 113.639 L 299.693 116.558 301.347 114.765 C 302.256 113.779,303.990 111.820,305.200 110.411 C 308.587 106.468,310.041 104.810,312.036 102.618 C 313.046 101.508,315.017 99.340,316.417 97.800 C 327.176 85.966,333.762 81.083,343.411 77.792 C 348.164 76.170,349.154 75.923,357.900 74.170 C 359.465 73.856,359.482 73.696,358.182 71.511 C 357.623 70.570,357.062 69.485,356.936 69.100 C 356.810 68.715,356.548 68.400,356.353 68.400 C 356.159 68.400,356.000 68.130,356.000 67.800 C 356.000 67.470,355.820 67.200,355.600 67.200 C 355.380 67.200,355.200 66.930,355.200 66.600 C 355.200 66.270,355.059 66.000,354.886 66.000 C 354.714 66.000,354.257 65.467,353.872 64.815 C 353.487 64.163,352.947 63.398,352.673 63.115 C 352.398 62.832,351.736 61.970,351.201 61.200 C 350.667 60.430,349.648 59.176,348.937 58.414 L 347.646 57.027 346.023 57.914 C 345.130 58.401,343.635 59.205,342.700 59.700 C 341.765 60.195,340.910 60.690,340.800 60.800 C 340.404 61.196,338.185 62.454,337.500 62.671 C 337.115 62.793,336.800 63.052,336.800 63.247 C 336.800 63.441,336.607 63.600,336.372 63.600 C 336.137 63.600,335.159 64.140,334.200 64.800 C 333.241 65.460,332.346 66.000,332.211 66.000 C 332.076 66.000,331.749 66.173,331.483 66.384 C 331.217 66.595,328.390 68.512,325.200 70.644 C 322.010 72.776,319.310 74.637,319.200 74.780 C 319.090 74.922,318.370 75.475,317.600 76.008 C 316.830 76.542,315.851 77.298,315.425 77.689 C 314.630 78.418,313.386 78.635,313.071 78.100 C 312.624 77.341,313.940 75.605,318.391 71.082 C 323.615 65.773,323.429 65.906,331.000 62.012 C 333.860 60.542,336.920 58.919,337.800 58.407 C 338.680 57.896,340.120 57.100,341.000 56.638 C 341.880 56.177,342.690 55.697,342.800 55.571 C 342.910 55.445,343.315 55.225,343.700 55.083 C 345.349 54.475,344.390 53.038,338.977 48.000 C 331.172 40.736,329.461 39.479,327.857 39.831 C 326.694 40.087,326.330 40.231,324.405 41.200 C 323.212 41.801,322.406 41.683,322.353 40.900 C 322.284 39.885,322.442 39.029,322.740 38.800 C 323.153 38.482,324.000 36.853,324.000 36.377 C 324.000 35.678,319.770 32.400,318.868 32.400 C 318.647 32.400,318.407 32.259,318.333 32.087 C 318.125 31.598,315.225 30.000,314.546 30.000 C 314.211 30.000,313.276 30.690,312.469 31.534 C 310.018 34.095,306.111 38.554,304.316 40.840 C 303.383 42.028,302.520 43.090,302.397 43.200 C 302.275 43.310,301.316 44.570,300.265 46.000 C 299.215 47.430,298.115 48.894,297.821 49.254 C 297.527 49.614,296.369 51.267,295.249 52.927 C 292.900 56.408,292.540 56.712,291.727 55.898 C 291.294 55.465,291.237 55.095,291.521 54.551 C 291.736 54.138,292.274 52.990,292.716 52.000 C 293.158 51.010,294.258 48.622,295.160 46.693 C 296.062 44.763,296.800 43.111,296.800 43.020 C 296.800 41.088,301.371 33.778,304.667 30.440 C 306.720 28.359,308.400 26.587,308.400 26.500 C 308.400 26.101,307.195 25.200,306.662 25.200 C 306.335 25.200,306.007 25.065,305.933 24.900 C 305.745 24.476,301.096 22.288,293.400 19.003 C 292.740 18.722,291.165 18.111,289.900 17.646 C 288.635 17.180,286.655 16.453,285.500 16.029 C 284.345 15.604,282.680 15.042,281.800 14.779 C 280.920 14.517,279.887 14.144,279.505 13.951 C 279.123 13.758,278.536 13.600,278.200 13.600 C 277.864 13.600,277.277 13.442,276.895 13.249 C 273.913 11.743,270.343 11.570,269.678 12.900 C 269.431 13.395,268.654 14.790,267.952 16.000 C 267.251 17.210,265.953 19.550,265.069 21.200 C 264.184 22.850,263.312 24.260,263.130 24.333 C 262.949 24.407,262.800 24.812,262.800 25.233 C 262.800 25.655,262.620 26.000,262.400 26.000 C 262.180 26.000,262.000 26.360,262.000 26.800 C 262.000 27.240,261.820 27.600,261.600 27.600 C 261.380 27.600,261.200 27.960,261.200 28.400 C 261.200 28.840,261.020 29.200,260.800 29.200 C 260.580 29.200,260.400 29.560,260.400 30.000 C 260.400 30.440,260.220 30.800,260.000 30.800 C 259.780 30.800,259.600 31.160,259.600 31.600 C 259.600 32.040,259.420 32.400,259.200 32.400 C 258.980 32.400,258.800 32.760,258.800 33.200 C 258.800 33.640,258.620 34.000,258.400 34.000 C 258.180 34.000,258.000 34.253,258.000 34.562 C 258.000 34.871,257.645 35.816,257.210 36.662 C 256.089 38.845,254.539 42.480,253.143 46.200 C 252.482 47.960,251.784 49.760,251.591 50.200 C 251.399 50.640,250.851 52.260,250.374 53.800 C 249.898 55.340,249.349 56.913,249.154 57.295 C 248.959 57.677,248.800 58.264,248.800 58.600 C 248.800 58.936,248.638 59.523,248.441 59.905 C 248.244 60.287,247.679 61.950,247.187 63.600 C 245.573 69.012,245.035 69.847,243.978 68.574 C 243.567 68.078,243.557 67.675,243.929 66.645 C 244.188 65.929,244.400 64.954,244.400 64.477 C 244.400 64.001,244.583 62.844,244.806 61.906 C 245.030 60.968,245.852 57.500,246.634 54.200 C 248.205 47.565,248.893 45.323,250.837 40.500 C 251.037 40.005,251.357 39.195,251.549 38.700 C 251.741 38.205,252.304 36.900,252.800 35.800 C 253.296 34.700,253.834 33.440,253.997 33.000 C 254.450 31.776,255.253 29.879,255.647 29.105 C 255.841 28.723,256.000 28.138,256.000 27.805 C 256.000 27.472,256.180 27.200,256.400 27.200 C 256.620 27.200,256.800 26.928,256.800 26.595 C 256.800 26.262,256.959 25.677,257.153 25.295 C 257.348 24.913,257.690 24.150,257.913 23.600 C 258.137 23.050,258.698 21.747,259.160 20.704 C 259.622 19.662,260.000 18.624,260.000 18.399 C 260.000 18.174,260.165 17.677,260.366 17.295 C 260.739 16.589,261.413 15.040,262.562 12.251 C 263.579 9.783,262.792 8.800,259.800 8.800 C 259.118 8.800,258.389 8.637,258.180 8.439 C 257.971 8.240,256.990 7.981,256.000 7.862 C 255.010 7.744,253.300 7.472,252.200 7.258 C 246.792 6.206,238.130 4.924,234.102 4.579 L 230.804 4.297 229.202 5.998 C 228.321 6.933,227.600 7.869,227.600 8.078 C 227.600 8.741,226.487 9.600,225.629 9.600 C 224.866 9.600,224.800 9.367,224.800 6.660 L 224.800 3.720 221.139 3.460 C 215.596 3.066,198.917 3.260,192.600 3.791 M206.200 105.621 C 200.182 106.067,196.086 106.728,186.700 108.770 C 183.954 109.367,178.751 110.894,177.000 111.617 C 176.560 111.799,175.030 112.331,173.600 112.800 C 170.836 113.706,170.805 113.718,166.800 115.407 C 160.775 117.948,148.230 124.962,147.200 126.366 C 147.090 126.516,146.370 127.075,145.600 127.608 C 141.877 130.185,133.385 138.677,130.808 142.400 C 130.275 143.170,129.725 143.890,129.587 144.000 C 129.449 144.110,128.414 145.574,127.288 147.253 C 115.094 165.428,108.906 189.191,109.736 214.658 C 110.029 223.640,110.205 224.896,111.148 224.715 C 111.726 224.603,111.782 223.660,111.671 215.995 C 111.360 194.569,117.453 169.425,126.081 156.528 C 126.697 155.608,127.200 154.732,127.200 154.580 C 127.200 154.190,131.415 148.182,133.361 145.800 C 138.368 139.671,147.582 130.922,150.902 129.145 C 151.368 128.896,152.110 128.356,152.550 127.946 C 152.991 127.536,153.572 127.200,153.842 127.200 C 154.112 127.200,154.393 127.065,154.467 126.900 C 154.634 126.524,156.764 125.225,157.700 124.929 C 158.085 124.807,158.400 124.548,158.400 124.353 C 158.400 124.159,158.745 124.000,159.167 124.000 C 159.588 124.000,159.993 123.859,160.067 123.687 C 160.239 123.283,166.823 120.084,171.200 118.278 C 178.935 115.086,186.920 113.130,199.600 111.319 C 205.280 110.508,225.729 110.356,230.400 111.090 C 232.050 111.349,235.290 111.772,237.600 112.029 C 249.011 113.301,264.116 116.551,276.600 120.419 C 278.140 120.896,279.897 121.378,280.505 121.489 C 281.113 121.601,281.708 121.851,281.829 122.046 C 281.949 122.241,282.476 122.400,283.000 122.400 C 283.524 122.400,284.064 122.580,284.200 122.800 C 284.336 123.020,284.799 123.200,285.229 123.200 C 285.659 123.200,286.413 123.408,286.905 123.662 C 288.826 124.656,289.216 124.800,289.971 124.800 C 290.401 124.800,290.851 124.959,290.971 125.154 C 291.765 126.437,293.893 125.894,295.157 124.086 C 296.660 121.934,295.681 121.196,287.000 117.937 C 285.240 117.276,283.080 116.462,282.200 116.127 C 279.995 115.288,273.700 113.195,272.000 112.734 C 271.230 112.526,270.015 112.185,269.300 111.977 C 261.854 109.816,257.688 108.918,247.100 107.193 C 235.766 105.346,218.753 104.693,206.200 105.621 M208.000 113.666 C 200.100 113.985,195.929 114.447,190.600 115.591 C 189.720 115.780,187.920 116.151,186.600 116.414 C 180.637 117.604,171.661 120.613,166.181 123.259 C 163.970 124.327,161.960 125.200,161.714 125.200 C 161.468 125.200,161.207 125.335,161.133 125.500 C 160.966 125.876,158.836 127.175,157.900 127.471 C 157.515 127.593,157.200 127.852,157.200 128.047 C 157.200 128.241,156.975 128.403,156.700 128.407 C 156.425 128.411,155.660 128.848,155.000 129.377 C 154.340 129.906,152.540 131.284,151.000 132.439 C 147.821 134.822,142.461 139.514,140.535 141.600 C 136.343 146.138,131.484 152.554,129.248 156.502 C 128.782 157.326,128.012 158.675,127.538 159.500 C 122.936 167.513,118.859 179.093,116.873 189.800 C 114.560 202.262,113.965 224.000,115.936 224.000 C 116.525 224.000,116.607 223.264,116.664 217.500 C 116.726 211.282,117.325 205.745,118.644 199.200 C 119.267 196.105,119.406 195.595,120.817 191.200 C 121.660 188.575,121.880 187.978,122.800 185.800 C 123.079 185.140,123.437 184.240,123.597 183.800 C 124.566 181.123,128.708 173.681,131.500 169.600 C 139.875 157.359,152.564 147.058,165.000 142.406 C 166.267 141.932,168.138 141.138,168.895 140.753 C 169.277 140.559,169.941 140.400,170.371 140.400 C 170.801 140.400,171.251 140.241,171.371 140.046 C 171.492 139.851,172.087 139.601,172.695 139.490 C 173.303 139.379,175.510 138.846,177.600 138.305 C 179.690 137.764,182.750 137.104,184.400 136.837 C 186.050 136.570,188.390 136.178,189.600 135.965 C 193.332 135.310,207.758 135.080,214.000 135.578 C 225.608 136.502,235.696 138.211,247.200 141.200 C 247.970 141.400,249.140 141.676,249.800 141.812 C 250.460 141.949,251.360 142.202,251.800 142.375 C 252.574 142.679,253.624 142.995,257.000 143.940 C 260.463 144.909,269.184 147.780,272.534 149.055 C 276.986 150.749,277.625 150.754,278.574 149.100 C 278.984 148.385,281.273 144.871,283.660 141.292 C 286.047 137.712,288.000 134.607,288.000 134.392 C 288.000 134.176,288.180 134.000,288.400 134.000 C 288.620 134.000,288.800 133.730,288.800 133.400 C 288.800 133.070,288.980 132.800,289.200 132.800 C 289.420 132.800,289.600 132.530,289.600 132.200 C 289.600 131.870,289.780 131.600,290.000 131.600 C 290.220 131.600,290.400 131.330,290.400 131.000 C 290.400 130.670,290.580 130.400,290.800 130.400 C 291.759 130.400,291.183 128.376,290.100 127.942 C 289.495 127.699,288.640 127.351,288.200 127.169 C 287.524 126.889,280.249 124.494,276.200 123.218 C 269.625 121.146,259.398 118.593,251.391 117.025 C 240.126 114.820,237.624 114.400,235.749 114.400 C 234.868 114.400,233.169 114.232,231.973 114.027 C 229.074 113.529,216.193 113.336,208.000 113.666 M193.800 138.436 C 191.380 138.609,188.320 138.932,187.000 139.155 C 182.789 139.866,180.243 140.370,178.600 140.819 C 177.720 141.059,176.550 141.347,176.000 141.458 C 175.450 141.569,174.640 141.806,174.200 141.985 C 173.760 142.163,172.590 142.541,171.600 142.824 C 170.610 143.107,169.629 143.488,169.420 143.670 C 169.211 143.851,168.804 144.000,168.516 144.000 C 168.227 144.000,167.138 144.379,166.096 144.842 C 153.311 150.518,143.475 158.108,135.788 168.225 C 131.295 174.140,127.204 181.800,124.800 188.800 C 124.536 189.570,124.176 190.560,124.000 191.000 C 123.259 192.858,121.976 197.678,121.218 201.454 C 119.632 209.347,118.857 223.400,120.007 223.400 C 120.642 223.400,120.884 222.192,121.611 215.400 C 122.279 209.155,123.434 202.950,124.811 198.200 C 125.066 197.320,125.368 196.013,125.481 195.296 C 125.595 194.579,125.849 193.894,126.044 193.773 C 126.240 193.652,126.400 193.201,126.400 192.771 C 126.400 192.341,126.566 191.677,126.770 191.295 C 126.973 190.913,127.879 188.699,128.784 186.375 C 137.392 164.257,156.293 148.814,180.600 144.039 C 181.920 143.780,183.768 143.395,184.706 143.184 C 185.644 142.973,187.192 142.800,188.146 142.800 C 189.100 142.800,190.402 142.638,191.040 142.441 C 195.572 141.037,215.518 141.240,226.800 142.804 C 239.365 144.546,254.817 148.339,262.600 151.591 C 263.040 151.775,264.210 152.227,265.200 152.596 C 267.439 153.429,269.347 154.250,271.338 155.237 C 273.326 156.223,274.420 156.211,274.684 155.200 C 274.799 154.760,275.052 154.400,275.247 154.400 C 276.319 154.400,275.336 153.186,273.700 152.490 C 271.708 151.643,260.337 147.750,258.100 147.149 C 256.449 146.706,254.142 146.056,252.600 145.600 C 251.940 145.405,250.725 145.055,249.900 144.823 C 249.075 144.590,247.725 144.208,246.900 143.973 C 230.395 139.279,210.737 137.229,193.800 138.436 M191.400 148.617 C 179.263 150.036,166.277 154.416,158.690 159.650 C 145.639 168.652,135.701 181.462,131.574 194.600 C 131.091 196.140,130.559 197.760,130.393 198.200 C 130.227 198.640,129.906 199.720,129.679 200.600 C 129.452 201.480,129.080 202.920,128.854 203.800 C 127.592 208.696,127.137 213.642,126.942 224.600 C 126.706 237.858,126.778 238.185,131.824 246.633 C 133.157 248.865,134.941 252.246,135.787 254.146 C 137.597 258.206,137.536 258.178,138.732 255.493 C 139.245 254.342,139.861 253.040,140.102 252.600 C 140.343 252.160,141.017 250.897,141.599 249.794 C 145.772 241.891,153.232 232.606,158.800 228.385 C 159.790 227.635,160.690 226.914,160.800 226.784 C 161.673 225.751,169.150 221.696,172.600 220.385 C 186.230 215.205,204.690 214.633,222.179 218.848 C 227.735 220.187,228.667 220.245,229.696 219.313 C 230.173 218.882,231.526 218.514,233.328 218.325 C 234.907 218.160,238.000 217.835,240.200 217.604 C 246.927 216.897,255.706 216.409,266.522 216.139 L 276.845 215.881 278.704 213.441 C 279.726 212.098,280.664 210.910,280.788 210.800 C 280.911 210.690,282.481 208.890,284.277 206.800 C 286.072 204.710,290.614 199.942,294.370 196.204 C 301.672 188.939,301.649 188.975,300.331 187.062 C 292.551 175.766,281.235 167.067,264.600 159.595 C 245.791 151.146,212.490 146.152,191.400 148.617 M307.775 187.488 C 307.334 187.879,305.449 189.538,303.586 191.172 C 298.005 196.071,289.688 204.586,284.402 210.812 C 283.194 212.235,282.111 213.490,281.997 213.600 C 281.883 213.710,281.029 214.722,280.100 215.849 C 277.763 218.684,277.857 218.666,262.400 219.191 C 250.139 219.607,239.964 220.291,234.900 221.039 C 233.177 221.294,232.565 222.393,233.573 223.420 C 234.374 224.236,251.746 259.235,256.097 268.800 C 256.748 270.230,257.622 272.092,258.040 272.938 C 258.458 273.784,258.800 274.729,258.800 275.038 C 258.800 275.347,258.980 275.600,259.200 275.600 C 259.420 275.600,259.600 275.853,259.600 276.162 C 259.600 276.471,259.943 277.416,260.363 278.262 C 260.782 279.108,261.412 280.475,261.763 281.300 C 262.113 282.125,262.649 283.385,262.953 284.100 C 263.256 284.815,263.778 286.030,264.111 286.800 C 264.445 287.570,265.289 289.585,265.987 291.278 C 267.430 294.778,267.920 295.084,272.200 295.170 C 276.535 295.256,285.837 296.567,288.239 297.431 C 290.268 298.160,290.408 298.533,291.643 306.500 C 292.097 309.427,292.663 312.796,293.172 315.600 C 293.392 316.810,293.771 318.970,294.015 320.400 C 294.259 321.830,294.625 323.945,294.829 325.100 C 295.033 326.255,295.363 328.145,295.563 329.300 C 296.433 334.333,296.786 336.341,297.180 338.500 C 297.411 339.765,297.780 341.790,298.000 343.000 C 298.220 344.210,298.580 346.190,298.800 347.400 C 299.020 348.610,299.380 350.590,299.600 351.800 C 299.820 353.010,300.166 354.945,300.368 356.100 C 300.570 357.255,301.380 361.341,302.168 365.181 C 304.188 375.029,304.068 375.814,300.687 374.827 C 299.759 374.556,298.280 374.154,297.400 373.934 C 295.270 373.401,292.871 372.769,291.400 372.351 C 274.092 367.442,261.765 362.840,246.785 355.698 C 240.125 352.523,237.200 349.298,237.200 345.130 C 237.200 339.926,232.981 328.343,229.443 323.835 C 224.079 316.999,218.228 314.397,208.234 314.404 C 199.550 314.411,196.871 315.457,190.629 321.281 C 184.619 326.890,180.848 329.225,176.000 330.340 C 172.056 331.247,161.980 332.040,150.475 332.349 L 141.151 332.600 139.587 337.200 C 138.727 339.730,138.018 341.822,138.011 341.849 C 137.728 343.072,165.164 342.590,172.400 341.245 C 173.610 341.020,175.230 340.726,176.000 340.591 C 176.770 340.456,177.760 340.203,178.200 340.028 C 178.640 339.854,179.720 339.494,180.600 339.229 C 185.238 337.832,189.265 335.495,191.900 332.669 C 192.835 331.667,193.602 330.701,193.604 330.523 C 193.619 329.405,199.988 324.000,201.292 324.000 C 201.593 324.000,202.011 323.857,202.220 323.682 C 204.220 322.006,211.827 321.742,215.000 323.238 C 218.051 324.676,221.695 327.918,222.864 330.234 C 223.188 330.875,223.645 331.760,223.880 332.200 C 225.112 334.509,226.142 337.699,226.849 341.400 C 228.019 347.521,228.699 352.190,229.052 356.540 C 229.423 361.101,232.871 363.817,246.000 369.888 C 247.430 370.549,249.950 371.722,251.600 372.495 C 254.425 373.817,255.623 374.353,259.000 375.800 C 259.770 376.130,260.985 376.655,261.700 376.966 C 267.997 379.710,288.301 386.700,297.200 389.188 C 298.190 389.465,299.360 389.837,299.800 390.015 C 300.240 390.194,301.050 390.431,301.600 390.542 C 302.150 390.653,303.230 390.927,304.000 391.150 C 309.933 392.867,311.921 393.350,322.934 395.746 C 328.276 396.909,328.124 397.118,326.393 391.000 C 326.143 390.120,325.773 388.635,325.570 387.700 C 324.851 384.395,324.439 382.580,324.004 380.800 C 323.086 377.046,322.783 375.741,322.380 373.800 C 322.152 372.700,321.793 371.035,321.583 370.100 C 321.007 367.541,320.526 365.263,320.000 362.600 C 319.739 361.280,319.379 359.480,319.200 358.600 C 318.195 353.669,317.622 350.439,315.222 336.200 C 314.109 329.600,313.018 323.300,312.797 322.200 C 312.575 321.100,311.872 317.500,311.233 314.200 C 310.594 310.900,309.955 307.660,309.811 307.000 C 309.668 306.340,309.390 304.990,309.194 304.000 C 308.801 302.019,308.581 301.011,306.822 293.100 C 306.614 292.165,306.244 290.590,306.000 289.600 C 305.756 288.610,305.404 287.080,305.218 286.200 C 303.119 276.290,302.752 275.573,299.400 274.839 C 298.080 274.551,296.550 274.175,296.000 274.004 C 295.450 273.833,294.190 273.473,293.200 273.204 C 282.642 270.339,280.491 268.969,275.607 262.000 C 275.068 261.230,274.407 260.374,274.139 260.098 C 273.872 259.821,273.538 259.236,273.399 258.798 C 273.260 258.359,272.999 258.000,272.820 258.000 C 272.640 258.000,272.390 257.685,272.264 257.300 C 272.138 256.915,271.486 255.700,270.814 254.600 C 265.077 245.203,264.119 239.456,268.513 240.794 C 269.441 241.077,270.830 241.489,271.600 241.709 C 272.370 241.930,273.360 242.246,273.800 242.412 C 274.240 242.577,275.500 242.991,276.600 243.330 C 286.859 246.497,304.508 253.801,307.886 256.276 C 309.225 257.258,310.180 258.953,310.548 261.000 C 310.914 263.033,311.892 267.626,312.847 271.800 C 313.048 272.680,313.383 274.300,313.590 275.400 C 313.798 276.500,314.138 278.210,314.347 279.200 C 315.185 283.179,315.862 286.704,317.574 296.000 C 319.235 305.022,320.019 306.739,323.600 309.200 C 324.370 309.729,325.090 310.263,325.200 310.386 C 325.573 310.805,329.396 313.862,329.966 314.196 C 331.097 314.860,330.096 286.849,328.387 270.000 C 327.086 257.173,325.617 247.423,323.187 235.500 C 322.974 234.455,322.628 232.745,322.418 231.700 C 321.959 229.415,321.380 226.771,320.862 224.600 C 320.652 223.720,320.285 222.100,320.045 221.000 C 319.806 219.900,319.443 218.370,319.240 217.600 C 317.143 209.674,314.567 200.922,312.765 195.600 C 309.670 186.458,309.411 186.035,307.775 187.488 M189.399 219.391 C 172.420 221.563,160.629 227.755,152.070 238.994 C 151.062 240.317,150.125 241.490,149.989 241.600 C 149.594 241.917,146.400 246.729,146.400 247.006 C 146.400 247.143,145.893 248.008,145.273 248.928 C 143.361 251.764,139.200 260.624,139.206 261.844 C 139.212 263.024,140.031 265.765,140.526 266.259 C 140.677 266.410,140.800 266.943,140.800 267.443 C 140.800 267.943,140.980 268.464,141.200 268.600 C 141.420 268.736,141.600 269.456,141.600 270.200 C 141.600 270.944,141.780 271.664,142.000 271.800 C 142.220 271.936,142.400 272.541,142.400 273.144 C 142.400 273.747,142.562 274.411,142.759 274.620 C 142.956 274.829,143.219 275.720,143.343 276.600 C 143.467 277.480,143.761 279.280,143.995 280.600 C 145.187 287.306,145.385 290.048,145.381 299.800 C 145.377 309.493,145.119 313.134,143.994 319.400 C 143.756 320.720,143.463 322.610,143.342 323.600 C 143.221 324.590,142.960 325.571,142.761 325.780 C 142.563 325.989,142.400 326.873,142.400 327.745 L 142.400 329.329 154.500 329.066 C 175.305 328.614,179.850 327.562,185.974 321.777 C 197.105 311.260,203.535 309.302,216.885 312.364 C 228.924 315.126,239.999 330.900,240.000 345.288 C 240.000 346.260,241.070 348.641,242.049 349.849 C 242.390 350.270,253.610 355.941,256.900 357.355 C 261.953 359.527,261.927 359.517,266.200 361.137 C 270.319 362.699,278.321 365.472,281.400 366.403 C 284.127 367.229,292.791 369.832,294.600 370.369 C 297.331 371.180,300.000 371.734,300.202 371.531 C 300.322 371.412,299.501 366.474,298.378 360.557 C 297.256 354.641,296.181 348.810,295.989 347.600 C 295.657 345.505,295.333 343.682,294.374 338.500 C 294.140 337.235,293.774 335.120,293.560 333.800 C 293.346 332.480,293.012 330.500,292.818 329.400 C 292.623 328.300,292.255 326.140,292.000 324.600 C 291.745 323.060,291.371 320.855,291.168 319.700 C 290.966 318.545,290.634 316.655,290.432 315.500 C 290.081 313.498,289.523 310.162,288.809 305.800 C 288.158 301.825,287.883 300.592,287.550 300.165 C 286.981 299.437,275.928 298.001,270.871 297.999 C 266.262 297.997,265.275 297.414,264.017 293.949 C 263.508 292.547,262.289 289.510,261.309 287.200 C 258.837 281.374,258.468 280.531,257.201 277.800 C 256.589 276.480,255.630 274.410,255.071 273.200 C 248.382 258.719,243.735 249.201,235.930 234.000 C 231.169 224.725,231.078 224.597,228.686 223.697 C 218.047 219.696,201.333 217.864,189.399 219.391 " stroke="none" fill="#000000" fill-rule="evenodd"></path><path id="path1" d="" stroke="none" fill="#080404" fill-rule="evenodd"></path></g></svg>