<svg xmlns="http://www.w3.org/2000/svg" xmlns:xlink="http://www.w3.org/1999/xlink" width="400" height="400" viewBox="0, 0, 400,400" version="1.1"><g class="layer"><g id="svgg"><path d="m192.6,3.791c-3.08,0.259 -5.891,0.602 -6.246,0.762c-1.749,0.788 -3.242,5.614 -3.814,12.325c-0.164,1.923 -0.443,2.873 -0.993,3.37c-1.486,1.345 -1.804,0.07 -2.648,-10.648l-0.299,-3.8l-1.4,0.038c-1.404,0.038 -4.86,0.597 -8.6,1.39c-1.1,0.233 -2.676,0.521 -3.503,0.64c-0.826,0.119 -1.602,0.377 -1.723,0.574c-0.122,0.197 -0.74,0.358 -1.374,0.358c-0.634,0 -1.264,0.18 -1.4,0.4c-0.136,0.22 -0.766,0.4 -1.4,0.4c-0.634,0 -1.264,0.18 -1.4,0.4c-0.136,0.22 -0.676,0.4 -1.2,0.4c-0.524,0 -1.064,0.18 -1.2,0.4c-0.136,0.22 -0.766,0.4 -1.4,0.4c-0.634,0 -1.264,0.18 -1.4,0.4c-0.136,0.22 -0.676,0.4 -1.2,0.4c-0.524,0 -1.064,0.18 -1.2,0.4c-0.136,0.22 -0.599,0.4 -1.029,0.4c-0.43,0 -1.094,0.159 -1.476,0.353c-0.908,0.462 -2.359,1.049 -4.095,1.656c-0.77,0.269 -2.48,0.979 -3.8,1.577c-1.32,0.597 -3.03,1.334 -3.8,1.637c-0.77,0.303 -3.283,1.502 -5.584,2.664c-2.301,1.162 -4.416,2.113 -4.7,2.113c-0.284,0 -0.516,0.138 -0.516,0.306c0,0.168 -0.675,0.612 -1.5,0.988c-2.113,0.961 -3.806,2.005 -4.388,2.706c-0.606,0.73 -0.717,0.089 2.741,15.8c0.323,1.47 0.707,3.279 1.357,6.4c0.138,0.66 0.404,1.56 0.593,2c0.188,0.44 0.453,1.43 0.589,2.2c0.135,0.77 0.347,1.987 0.471,2.704c0.124,0.717 0.386,1.402 0.581,1.523c0.196,0.121 0.356,0.829 0.356,1.573c0,0.744 0.18,1.464 0.4,1.6c0.22,0.136 0.4,0.766 0.4,1.4c0,0.634 0.18,1.264 0.4,1.4c0.22,0.136 0.4,0.766 0.4,1.4c0,0.634 0.18,1.264 0.4,1.4c0.22,0.136 0.4,0.651 0.4,1.144c0,0.493 0.195,1.091 0.434,1.33c0.737,0.737 0.266,2.312 -0.734,2.454c-0.584,0.083 -0.9,-0.079 -0.9,-0.462c0,-0.509 -0.54,-1.764 -2.05,-4.761c-0.193,-0.382 -0.35,-1.057 -0.35,-1.5c0,-0.443 -0.18,-0.805 -0.4,-0.805c-0.22,0 -0.4,-0.349 -0.4,-0.776c0,-0.427 -0.18,-0.888 -0.4,-1.024c-0.22,-0.136 -0.4,-0.599 -0.4,-1.029c0,-0.755 -0.144,-1.145 -1.138,-3.066c-0.254,-0.492 -0.462,-1.246 -0.462,-1.676c0,-0.43 -0.18,-0.893 -0.4,-1.029c-0.22,-0.136 -0.4,-0.676 -0.4,-1.2c0,-0.524 -0.18,-1.064 -0.4,-1.2c-0.22,-0.136 -0.4,-0.599 -0.4,-1.029c0,-0.43 -0.162,-1.094 -0.359,-1.476c-0.197,-0.382 -0.759,-2.045 -1.248,-3.695c-0.489,-1.65 -1.026,-3.45 -1.193,-4c-0.167,-0.55 -0.684,-2.26 -1.149,-3.8c-2.286,-7.57 -2.297,-7.596 -3.189,-7.728c-0.474,-0.07 -0.862,0.053 -0.862,0.273c0,0.221 -0.359,0.515 -0.798,0.654c-0.438,0.139 -1.023,0.467 -1.3,0.727c-0.276,0.261 -1.672,1.277 -3.102,2.258c-2.623,1.799 -7.418,5.456 -10,7.625c-0.77,0.648 -1.745,1.425 -2.168,1.728c-0.837,0.602 -0.998,3.657 -0.232,4.423c0.22,0.22 0.4,0.803 0.4,1.296c0,0.493 0.18,1.008 0.4,1.144c0.834,0.515 0.47,3 -0.44,3c-0.794,0 -4.36,-3.323 -4.36,-4.064c0,-3.13 -13.188,10.096 -21.045,21.106l-1.868,2.618l0.931,1.67c0.512,0.919 1.708,2.887 2.657,4.374c1.88,2.947 2.071,3.678 1.063,4.065c-0.675,0.258 -0.902,0.094 -4.657,-3.369c-2.643,-2.437 -4.036,-1.89 -5.345,2.1c-0.126,0.385 -0.355,0.7 -0.508,0.7c-0.153,0 -0.526,0.63 -0.828,1.4c-0.302,0.77 -0.696,1.4 -0.875,1.4c-0.179,0 -0.325,0.36 -0.325,0.8c0,0.44 -0.18,0.8 -0.4,0.8c-0.22,0 -0.4,0.36 -0.4,0.8c0,0.44 -0.18,0.8 -0.4,0.8c-0.22,0 -0.4,0.36 -0.4,0.8c0,0.44 -0.18,0.8 -0.4,0.8c-0.22,0 -0.4,0.36 -0.4,0.8c0,0.44 -0.18,0.8 -0.4,0.8c-0.22,0 -0.4,0.236 -0.4,0.525c0,0.289 -0.428,1.414 -0.951,2.5c-0.523,1.086 -1.706,3.955 -2.63,6.375c-0.923,2.42 -1.827,4.76 -2.009,5.2c-0.434,1.054 -0.923,2.563 -2.009,6.2c-0.493,1.65 -1.041,3.36 -1.219,3.8c-0.177,0.44 -0.413,1.25 -0.524,1.8c-0.111,0.55 -0.41,1.72 -0.663,2.6c-0.254,0.88 -0.548,2.14 -0.655,2.8c-0.107,0.66 -0.351,1.56 -0.542,2c-0.192,0.44 -0.442,1.43 -0.557,2.2c-0.114,0.77 -0.406,2.39 -0.648,3.6c-0.242,1.21 -0.529,3.01 -0.637,4c-0.109,0.99 -0.36,2.16 -0.558,2.6c-0.379,0.843 -0.654,3.08 -1.042,8.47l-0.236,3.269l1.822,0.273c4.004,0.601 4.007,2.207 0.007,3.435l-2.426,0.744l-0.26,4.505c-0.46,7.983 -0.319,23.688 0.217,24.224c0.264,0.264 1.034,0.48 1.711,0.48c3.399,0 3.739,1.854 0.709,3.871l-2.3,1.531l0.033,2.999c0.03,2.794 0.487,7.607 1.406,14.799c0.21,1.65 0.483,3.99 0.607,5.2c0.123,1.21 0.389,2.371 0.589,2.58c0.201,0.209 0.365,1.233 0.365,2.276c0,1.043 0.157,1.994 0.348,2.112c0.192,0.118 0.457,1.074 0.59,2.124c0.133,1.049 0.437,2.808 0.677,3.908c0.24,1.1 0.534,2.676 0.653,3.503c0.119,0.826 0.377,1.602 0.574,1.723c0.197,0.122 0.358,0.751 0.358,1.398c0,1.457 0.736,1.522 2,0.176c2.467,-2.626 3.254,-0.618 1.623,4.134c-1.291,3.759 -1.448,4.842 -0.864,5.971c0.197,0.382 0.738,1.955 1.202,3.495c2.136,7.088 6.147,18.842 6.577,19.272c0.144,0.144 0.262,0.594 0.262,1c0,0.406 0.159,1.051 0.353,1.433c0.195,0.382 0.576,1.235 0.847,1.895c0.271,0.66 0.622,1.47 0.779,1.8c0.158,0.33 0.536,1.455 0.841,2.5c0.716,2.451 1.152,2.451 0.713,0c-1.66,-9.264 -1.729,-10.17 -0.852,-11.252l0.764,-0.944l0.625,0.954c0.344,0.524 0.726,2.121 0.851,3.548c0.124,1.427 0.43,3.404 0.681,4.394c0.251,0.99 0.544,2.43 0.652,3.2c0.107,0.77 0.354,1.76 0.548,2.2c0.194,0.44 0.444,1.52 0.556,2.4c0.273,2.136 1.394,8.558 2.201,12.6c0.641,3.213 1.05,4.956 2.157,9.2c2.467,9.458 2.502,21.107 0.087,28.966c-1.083,3.523 -0.589,2.916 3.875,-4.766c4.233,-7.285 9.656,-20.533 11.298,-27.6c0.358,-1.54 0.869,-3.52 1.136,-4.4c0.346,-1.14 0.502,-6.723 0.541,-19.4c0.071,-22.697 0.752,-29.702 3.394,-34.895c0.194,-0.382 0.353,-0.967 0.353,-1.3c0,-0.333 0.18,-0.605 0.4,-0.605c0.22,0 0.4,-0.226 0.4,-0.503c0,-1.089 8.594,-8.297 9.893,-8.297c0.186,0 0.898,-0.495 1.584,-1.1l1.248,-1.1l-0.398,-5.6c-0.278,-3.913 -0.26,-8.07 0.06,-13.8c0.655,-11.738 1.192,-15.905 3.235,-25.1c0.232,-1.045 0.522,-2.487 0.644,-3.204c0.122,-0.717 0.383,-1.402 0.578,-1.523c0.196,-0.121 0.356,-0.602 0.356,-1.068c0,-0.901 0.665,-3.244 1.249,-4.4c0.193,-0.382 0.351,-0.928 0.351,-1.214c0,-3.504 11.678,-26.005 15.48,-29.826c0.293,-0.294 1.016,-1.194 1.608,-2c1.465,-1.994 11.483,-11.989 13.712,-13.679c0.99,-0.751 1.89,-1.469 2,-1.595c0.11,-0.126 0.83,-0.662 1.6,-1.191c0.77,-0.529 1.49,-1.088 1.6,-1.242c0.36,-0.505 8.908,-5.569 11.383,-6.743c4.826,-2.289 7.845,-3.615 8.232,-3.615c0.218,0 0.708,-0.159 1.09,-0.353c0.382,-0.195 1.19,-0.555 1.795,-0.8c0.605,-0.246 1.505,-0.618 2,-0.827c1.167,-0.492 4.541,-1.618 6.2,-2.067c0.715,-0.194 1.975,-0.545 2.8,-0.78c0.825,-0.234 2.22,-0.602 3.1,-0.818c0.88,-0.215 2.23,-0.555 3,-0.754c17.696,-4.578 41.767,-5.176 63.2,-1.57c5.536,0.931 9.117,1.679 15.1,3.151c3.752,0.923 4.766,1.184 6.3,1.619c0.88,0.25 2.05,0.546 2.6,0.657c0.55,0.111 1.36,0.346 1.8,0.521c0.44,0.175 2.6,0.89 4.8,1.588c2.2,0.698 4.36,1.423 4.8,1.611c0.44,0.188 4.106,1.655 8.147,3.261l7.346,2.919l1.654,-1.793c0.909,-0.986 2.643,-2.945 3.853,-4.354c3.387,-3.943 4.841,-5.601 6.836,-7.793c1.01,-1.11 2.981,-3.278 4.381,-4.818c10.759,-11.834 17.345,-16.717 26.994,-20.008c4.753,-1.622 5.743,-1.869 14.489,-3.622c1.565,-0.314 1.582,-0.474 0.282,-2.659c-0.559,-0.941 -1.12,-2.026 -1.246,-2.411c-0.126,-0.385 -0.388,-0.7 -0.583,-0.7c-0.194,0 -0.353,-0.27 -0.353,-0.6c0,-0.33 -0.18,-0.6 -0.4,-0.6c-0.22,0 -0.4,-0.27 -0.4,-0.6c0,-0.33 -0.141,-0.6 -0.314,-0.6c-0.172,0 -0.629,-0.533 -1.014,-1.185c-0.385,-0.652 -0.925,-1.417 -1.199,-1.7c-0.275,-0.283 -0.937,-1.145 -1.472,-1.915c-0.534,-0.77 -1.553,-2.024 -2.264,-2.786l-1.291,-1.387l-1.623,0.887c-0.893,0.487 -2.388,1.291 -3.323,1.786c-0.935,0.495 -1.79,0.99 -1.9,1.1c-0.396,0.396 -2.615,1.654 -3.3,1.871c-0.385,0.122 -0.7,0.381 -0.7,0.576c0,0.194 -0.193,0.353 -0.428,0.353c-0.235,0 -1.213,0.54 -2.172,1.2c-0.959,0.66 -1.854,1.2 -1.989,1.2c-0.135,0 -0.462,0.173 -0.728,0.384c-0.266,0.211 -3.093,2.128 -6.283,4.26c-3.19,2.132 -5.89,3.993 -6,4.136c-0.11,0.142 -0.83,0.695 -1.6,1.228c-0.77,0.534 -1.749,1.29 -2.175,1.681c-0.795,0.729 -2.039,0.946 -2.354,0.411c-0.447,-0.759 0.869,-2.495 5.32,-7.018c5.224,-5.309 5.038,-5.176 12.609,-9.07c2.86,-1.47 5.92,-3.093 6.8,-3.605c0.88,-0.511 2.32,-1.307 3.2,-1.769c0.88,-0.461 1.69,-0.941 1.8,-1.067c0.11,-0.126 0.515,-0.346 0.9,-0.488c1.649,-0.608 0.69,-2.045 -4.723,-7.083c-7.805,-7.264 -9.516,-8.521 -11.12,-8.169c-1.163,0.256 -1.527,0.4 -3.452,1.369c-1.193,0.601 -1.999,0.483 -2.052,-0.3c-0.069,-1.015 0.089,-1.871 0.387,-2.1c0.413,-0.318 1.26,-1.947 1.26,-2.423c0,-0.699 -4.23,-3.977 -5.132,-3.977c-0.221,0 -0.461,-0.141 -0.535,-0.313c-0.208,-0.489 -3.108,-2.087 -3.787,-2.087c-0.335,0 -1.27,0.69 -2.077,1.534c-2.451,2.561 -6.358,7.02 -8.153,9.306c-0.933,1.188 -1.796,2.25 -1.919,2.36c-0.122,0.11 -1.081,1.37 -2.132,2.8c-1.05,1.43 -2.15,2.894 -2.444,3.254c-0.294,0.36 -1.452,2.013 -2.572,3.673c-2.349,3.481 -2.709,3.785 -3.522,2.971c-0.433,-0.433 -0.49,-0.803 -0.206,-1.347c0.215,-0.413 0.753,-1.561 1.195,-2.551c0.442,-0.99 1.542,-3.378 2.444,-5.307c0.902,-1.93 1.64,-3.582 1.64,-3.673c0,-1.932 4.571,-9.242 7.867,-12.58c2.053,-2.081 3.733,-3.853 3.733,-3.94c0,-0.399 -1.205,-1.3 -1.738,-1.3c-0.327,0 -0.655,-0.135 -0.729,-0.3c-0.188,-0.424 -4.837,-2.612 -12.533,-5.897c-0.66,-0.281 -2.235,-0.892 -3.5,-1.357c-1.265,-0.466 -3.245,-1.193 -4.4,-1.617c-1.155,-0.425 -2.82,-0.987 -3.7,-1.25c-0.88,-0.262 -1.913,-0.635 -2.295,-0.828c-0.382,-0.193 -0.969,-0.351 -1.305,-0.351c-0.336,0 -0.923,-0.158 -1.305,-0.351c-2.982,-1.506 -6.552,-1.679 -7.217,-0.349c-0.247,0.495 -1.024,1.89 -1.726,3.1c-0.701,1.21 -1.999,3.55 -2.883,5.2c-0.885,1.65 -1.757,3.06 -1.939,3.133c-0.181,0.074 -0.33,0.479 -0.33,0.9c0,0.422 -0.18,0.767 -0.4,0.767c-0.22,0 -0.4,0.36 -0.4,0.8c0,0.44 -0.18,0.8 -0.4,0.8c-0.22,0 -0.4,0.36 -0.4,0.8c0,0.44 -0.18,0.8 -0.4,0.8c-0.22,0 -0.4,0.36 -0.4,0.8c0,0.44 -0.18,0.8 -0.4,0.8c-0.22,0 -0.4,0.36 -0.4,0.8c0,0.44 -0.18,0.8 -0.4,0.8c-0.22,0 -0.4,0.36 -0.4,0.8c0,0.44 -0.18,0.8 -0.4,0.8c-0.22,0 -0.4,0.253 -0.4,0.562c0,0.309 -0.355,1.254 -0.79,2.1c-1.121,2.183 -2.671,5.818 -4.067,9.538c-0.661,1.76 -1.359,3.56 -1.552,4c-0.192,0.44 -0.74,2.06 -1.217,3.6c-0.476,1.54 -1.025,3.113 -1.22,3.495c-0.195,0.382 -0.354,0.969 -0.354,1.305c0,0.336 -0.162,0.923 -0.359,1.305c-0.197,0.382 -0.762,2.045 -1.254,3.695c-1.614,5.412 -2.152,6.247 -3.209,4.974c-0.411,-0.496 -0.421,-0.899 -0.049,-1.929c0.259,-0.716 0.471,-1.691 0.471,-2.168c0,-0.476 0.183,-1.633 0.406,-2.571c0.224,-0.938 1.046,-4.406 1.828,-7.706c1.571,-6.635 2.259,-8.877 4.203,-13.7c0.2,-0.495 0.52,-1.305 0.712,-1.8c0.192,-0.495 0.755,-1.8 1.251,-2.9c0.496,-1.1 1.034,-2.36 1.197,-2.8c0.453,-1.224 1.256,-3.121 1.65,-3.895c0.194,-0.382 0.353,-0.967 0.353,-1.3c0,-0.333 0.18,-0.605 0.4,-0.605c0.22,0 0.4,-0.272 0.4,-0.605c0,-0.333 0.159,-0.918 0.353,-1.3c0.195,-0.382 0.537,-1.145 0.76,-1.695c0.224,-0.55 0.785,-1.853 1.247,-2.896c0.462,-1.042 0.84,-2.08 0.84,-2.305c0,-0.225 0.165,-0.722 0.366,-1.104c0.373,-0.706 1.047,-2.255 2.196,-5.044c1.017,-2.468 0.23,-3.451 -2.762,-3.451c-0.682,0 -1.411,-0.163 -1.62,-0.361c-0.209,-0.199 -1.19,-0.458 -2.18,-0.577c-0.99,-0.118 -2.7,-0.39 -3.8,-0.604c-5.408,-1.052 -14.07,-2.334 -18.098,-2.679l-3.298,-0.282l-1.602,1.701c-0.881,0.935 -1.602,1.871 -1.602,2.08c0,0.663 -1.113,1.522 -1.971,1.522c-0.763,0 -0.829,-0.233 -0.829,-2.94l0,-2.94l-3.661,-0.26c-5.543,-0.394 -22.222,-0.2 -28.539,0.331m13.6,101.83c-6.018,0.446 -10.114,1.107 -19.5,3.149c-2.746,0.597 -7.949,2.124 -9.7,2.847c-0.44,0.182 -1.97,0.714 -3.4,1.183c-2.764,0.906 -2.795,0.918 -6.8,2.607c-6.025,2.541 -18.57,9.555 -19.6,10.959c-0.11,0.15 -0.83,0.709 -1.6,1.242c-3.723,2.577 -12.215,11.069 -14.792,14.792c-0.533,0.77 -1.083,1.49 -1.221,1.6c-0.138,0.11 -1.173,1.574 -2.299,3.253c-12.194,18.175 -18.382,41.938 -17.552,67.405c0.293,8.982 0.469,10.238 1.412,10.057c0.578,-0.112 0.634,-1.055 0.523,-8.72c-0.311,-21.426 5.782,-46.57 14.41,-59.467c0.616,-0.92 1.119,-1.796 1.119,-1.948c0,-0.39 4.215,-6.398 6.161,-8.78c5.007,-6.129 14.221,-14.878 17.541,-16.655c0.466,-0.249 1.208,-0.789 1.648,-1.199c0.441,-0.41 1.022,-0.746 1.292,-0.746c0.27,0 0.551,-0.135 0.625,-0.3c0.167,-0.376 2.297,-1.675 3.233,-1.971c0.385,-0.122 0.7,-0.381 0.7,-0.576c0,-0.194 0.345,-0.353 0.767,-0.353c0.421,0 0.826,-0.141 0.9,-0.313c0.172,-0.404 6.756,-3.603 11.133,-5.409c7.735,-3.192 15.72,-5.148 28.4,-6.959c5.68,-0.811 26.129,-0.963 30.8,-0.229c1.65,0.259 4.89,0.682 7.2,0.939c11.411,1.272 26.516,4.522 39,8.39c1.54,0.477 3.297,0.959 3.905,1.07c0.608,0.112 1.203,0.362 1.324,0.557c0.12,0.195 0.647,0.354 1.171,0.354c0.524,0 1.064,0.18 1.2,0.4c0.136,0.22 0.599,0.4 1.029,0.4c0.43,0 1.184,0.208 1.676,0.462c1.921,0.994 2.311,1.138 3.066,1.138c0.43,0 0.88,0.159 1,0.354c0.794,1.283 2.922,0.74 4.186,-1.068c1.503,-2.152 0.524,-2.89 -8.157,-6.149c-1.76,-0.661 -3.92,-1.475 -4.8,-1.81c-2.205,-0.839 -8.5,-2.932 -10.2,-3.393c-0.77,-0.208 -1.985,-0.549 -2.7,-0.757c-7.446,-2.161 -11.612,-3.059 -22.2,-4.784c-11.334,-1.847 -28.347,-2.5 -40.9,-1.572m1.8,8.045c-7.9,0.319 -12.071,0.781 -17.4,1.925c-0.88,0.189 -2.68,0.56 -4,0.823c-5.963,1.19 -14.939,4.199 -20.419,6.845c-2.211,1.068 -4.221,1.941 -4.467,1.941c-0.246,0 -0.507,0.135 -0.581,0.3c-0.167,0.376 -2.297,1.675 -3.233,1.971c-0.385,0.122 -0.7,0.381 -0.7,0.576c0,0.194 -0.225,0.356 -0.5,0.36c-0.275,0.004 -1.04,0.441 -1.7,0.97c-0.66,0.529 -2.46,1.907 -4,3.062c-3.179,2.383 -8.539,7.075 -10.465,9.161c-4.192,4.538 -9.051,10.954 -11.287,14.902c-0.466,0.824 -1.236,2.173 -1.71,2.998c-4.602,8.013 -8.679,19.593 -10.665,30.3c-2.313,12.462 -2.908,34.2 -0.937,34.2c0.589,0 0.671,-0.736 0.728,-6.5c0.062,-6.218 0.661,-11.755 1.98,-18.3c0.623,-3.095 0.762,-3.605 2.173,-8c0.843,-2.625 1.063,-3.222 1.983,-5.4c0.279,-0.66 0.637,-1.56 0.797,-2c0.969,-2.677 5.111,-10.119 7.903,-14.2c8.375,-12.241 21.064,-22.542 33.5,-27.194c1.267,-0.474 3.138,-1.268 3.895,-1.653c0.382,-0.194 1.046,-0.353 1.476,-0.353c0.43,0 0.88,-0.159 1,-0.354c0.121,-0.195 0.716,-0.445 1.324,-0.556c0.608,-0.111 2.815,-0.644 4.905,-1.185c2.09,-0.541 5.15,-1.201 6.8,-1.468c1.65,-0.267 3.99,-0.659 5.2,-0.872c3.732,-0.655 18.158,-0.885 24.4,-0.387c11.608,0.924 21.696,2.633 33.2,5.622c0.77,0.2 1.94,0.476 2.6,0.612c0.66,0.137 1.56,0.39 2,0.563c0.774,0.304 1.824,0.62 5.2,1.565c3.463,0.969 12.184,3.84 15.534,5.115c4.452,1.694 5.091,1.699 6.04,0.045c0.41,-0.715 2.699,-4.229 5.086,-7.808c2.387,-3.58 4.34,-6.685 4.34,-6.9c0,-0.216 0.18,-0.392 0.4,-0.392c0.22,0 0.4,-0.27 0.4,-0.6c0,-0.33 0.18,-0.6 0.4,-0.6c0.22,0 0.4,-0.27 0.4,-0.6c0,-0.33 0.18,-0.6 0.4,-0.6c0.22,0 0.4,-0.27 0.4,-0.6c0,-0.33 0.18,-0.6 0.4,-0.6c0.959,0 0.383,-2.024 -0.7,-2.458c-0.605,-0.243 -1.46,-0.591 -1.9,-0.773c-0.676,-0.28 -7.951,-2.675 -12,-3.951c-6.575,-2.072 -16.802,-4.625 -24.809,-6.193c-11.265,-2.205 -13.767,-2.625 -15.642,-2.625c-0.881,0 -2.58,-0.168 -3.776,-0.373c-2.899,-0.498 -15.78,-0.691 -23.973,-0.361m-14.2,24.77c-2.42,0.173 -5.48,0.496 -6.8,0.719c-4.211,0.711 -6.757,1.215 -8.4,1.664c-0.88,0.24 -2.05,0.528 -2.6,0.639c-0.55,0.111 -1.36,0.348 -1.8,0.527c-0.44,0.178 -1.61,0.556 -2.6,0.839c-0.99,0.283 -1.971,0.664 -2.18,0.846c-0.209,0.181 -0.616,0.33 -0.904,0.33c-0.289,0 -1.378,0.379 -2.42,0.842c-12.785,5.676 -22.621,13.266 -30.308,23.383c-4.493,5.915 -8.584,13.575 -10.988,20.575c-0.264,0.77 -0.624,1.76 -0.8,2.2c-0.741,1.858 -2.024,6.678 -2.782,10.454c-1.586,7.893 -2.361,21.946 -1.211,21.946c0.635,0 0.877,-1.208 1.604,-8c0.668,-6.245 1.823,-12.45 3.2,-17.2c0.255,-0.88 0.557,-2.187 0.67,-2.904c0.114,-0.717 0.368,-1.402 0.563,-1.523c0.196,-0.121 0.356,-0.572 0.356,-1.002c0,-0.43 0.166,-1.094 0.37,-1.476c0.203,-0.382 1.109,-2.596 2.014,-4.92c8.608,-22.118 27.509,-37.561 51.816,-42.336c1.32,-0.259 3.168,-0.644 4.106,-0.855c0.938,-0.211 2.486,-0.384 3.44,-0.384c0.954,0 2.256,-0.162 2.894,-0.359c4.532,-1.404 24.478,-1.201 35.76,0.363c12.565,1.742 28.017,5.535 35.8,8.787c0.44,0.184 1.61,0.636 2.6,1.005c2.239,0.833 4.147,1.654 6.138,2.641c1.988,0.986 3.082,0.974 3.346,-0.037c0.115,-0.44 0.368,-0.8 0.563,-0.8c1.072,0 0.089,-1.214 -1.547,-1.91c-1.992,-0.847 -13.363,-4.74 -15.6,-5.341c-1.651,-0.443 -3.958,-1.093 -5.5,-1.549c-0.66,-0.195 -1.875,-0.545 -2.7,-0.777c-0.825,-0.233 -2.175,-0.615 -3,-0.85c-16.505,-4.694 -36.163,-6.744 -53.1,-5.537m-2.4,10.181c-12.137,1.419 -25.123,5.799 -32.71,11.033c-13.051,9.002 -22.989,21.812 -27.116,34.95c-0.483,1.54 -1.015,3.16 -1.181,3.6c-0.166,0.44 -0.487,1.52 -0.714,2.4c-0.227,0.88 -0.599,2.32 -0.825,3.2c-1.262,4.896 -1.717,9.842 -1.912,20.8c-0.236,13.258 -0.164,13.585 4.882,22.033c1.333,2.232 3.117,5.613 3.963,7.513c1.81,4.06 1.749,4.032 2.945,1.347c0.513,-1.151 1.129,-2.453 1.37,-2.893c0.241,-0.44 0.915,-1.703 1.497,-2.806c4.173,-7.903 11.633,-17.188 17.201,-21.409c0.99,-0.75 1.89,-1.471 2,-1.601c0.873,-1.033 8.35,-5.088 11.8,-6.399c13.63,-5.18 32.09,-5.752 49.579,-1.537c5.556,1.339 6.488,1.397 7.517,0.465c0.477,-0.431 1.83,-0.799 3.632,-0.988c1.579,-0.165 4.672,-0.49 6.872,-0.721c6.727,-0.707 15.506,-1.195 26.322,-1.465l10.323,-0.258l1.859,-2.44c1.022,-1.343 1.96,-2.531 2.084,-2.641c0.123,-0.11 1.693,-1.91 3.489,-4c1.795,-2.09 6.337,-6.858 10.093,-10.596c7.302,-7.265 7.279,-7.229 5.961,-9.142c-7.78,-11.296 -19.096,-19.995 -35.731,-27.467c-18.809,-8.449 -52.11,-13.443 -73.2,-10.978m116.375,38.871c-0.441,0.391 -2.326,2.05 -4.189,3.684c-5.581,4.899 -13.898,13.414 -19.184,19.64c-1.208,1.423 -2.291,2.678 -2.405,2.788c-0.114,0.11 -0.968,1.122 -1.897,2.249c-2.337,2.835 -2.243,2.817 -17.7,3.342c-12.261,0.416 -22.436,1.1 -27.5,1.848c-1.723,0.255 -2.335,1.354 -1.327,2.381c0.801,0.816 18.173,35.815 22.524,45.38c0.651,1.43 1.525,3.292 1.943,4.138c0.418,0.846 0.76,1.791 0.76,2.1c0,0.309 0.18,0.562 0.4,0.562c0.22,0 0.4,0.253 0.4,0.562c0,0.309 0.343,1.254 0.763,2.1c0.419,0.846 1.049,2.213 1.4,3.038c0.35,0.825 0.886,2.085 1.19,2.8c0.303,0.715 0.825,1.93 1.158,2.7c0.334,0.77 1.178,2.785 1.876,4.478c1.443,3.5 1.933,3.806 6.213,3.892c4.335,0.086 13.637,1.397 16.039,2.261c2.029,0.729 2.169,1.102 3.404,9.069c0.454,2.927 1.02,6.296 1.529,9.1c0.22,1.21 0.599,3.37 0.843,4.8c0.244,1.43 0.61,3.545 0.814,4.7c0.204,1.155 0.534,3.045 0.734,4.2c0.87,5.033 1.223,7.041 1.617,9.2c0.231,1.265 0.6,3.29 0.82,4.5c0.22,1.21 0.58,3.19 0.8,4.4c0.22,1.21 0.58,3.19 0.8,4.4c0.22,1.21 0.566,3.145 0.768,4.3c0.202,1.155 1.012,5.241 1.8,9.081c2.02,9.848 1.9,10.633 -1.481,9.646c-0.928,-0.271 -2.407,-0.673 -3.287,-0.893c-2.13,-0.533 -4.529,-1.165 -6,-1.583c-17.308,-4.909 -29.635,-9.511 -44.615,-16.653c-6.66,-3.175 -9.585,-6.4 -9.585,-10.568c0,-5.204 -4.219,-16.787 -7.757,-21.295c-5.364,-6.836 -11.215,-9.438 -21.209,-9.431c-8.684,0.007 -11.363,1.053 -17.605,6.877c-6.01,5.609 -9.781,7.944 -14.629,9.059c-3.944,0.907 -14.02,1.7 -25.525,2.009l-9.324,0.251l-1.564,4.6c-0.86,2.53 -1.569,4.622 -1.576,4.649c-0.283,1.223 27.153,0.741 34.389,-0.604c1.21,-0.225 2.83,-0.519 3.6,-0.654c0.77,-0.135 1.76,-0.388 2.2,-0.563c0.44,-0.174 1.52,-0.534 2.4,-0.799c4.638,-1.397 8.665,-3.734 11.3,-6.56c0.935,-1.002 1.702,-1.968 1.704,-2.146c0.015,-1.118 6.384,-6.523 7.688,-6.523c0.301,0 0.719,-0.143 0.928,-0.318c2,-1.676 9.607,-1.94 12.78,-0.444c3.051,1.438 6.695,4.68 7.864,6.996c0.324,0.641 0.781,1.526 1.016,1.966c1.232,2.309 2.262,5.499 2.969,9.2c1.17,6.121 1.85,10.79 2.203,15.14c0.371,4.561 3.819,7.277 16.948,13.348c1.43,0.661 3.95,1.834 5.6,2.607c2.825,1.322 4.023,1.858 7.4,3.305c0.77,0.33 1.985,0.855 2.7,1.166c6.297,2.744 26.601,9.734 35.5,12.222c0.99,0.277 2.16,0.649 2.6,0.827c0.44,0.179 1.25,0.416 1.8,0.527c0.55,0.111 1.63,0.385 2.4,0.608c5.933,1.717 7.921,2.2 18.934,4.596c5.342,1.163 5.19,1.372 3.459,-4.746c-0.25,-0.88 -0.62,-2.365 -0.823,-3.3c-0.719,-3.305 -1.131,-5.12 -1.566,-6.9c-0.918,-3.754 -1.221,-5.059 -1.624,-7c-0.228,-1.1 -0.587,-2.765 -0.797,-3.7c-0.576,-2.559 -1.057,-4.837 -1.583,-7.5c-0.261,-1.32 -0.621,-3.12 -0.8,-4c-1.005,-4.931 -1.578,-8.161 -3.978,-22.4c-1.113,-6.6 -2.204,-12.9 -2.425,-14c-0.222,-1.1 -0.925,-4.7 -1.564,-8c-0.639,-3.3 -1.278,-6.54 -1.422,-7.2c-0.143,-0.66 -0.421,-2.01 -0.617,-3c-0.393,-1.981 -0.613,-2.989 -2.372,-10.9c-0.208,-0.935 -0.578,-2.51 -0.822,-3.5c-0.244,-0.99 -0.596,-2.52 -0.782,-3.4c-2.099,-9.91 -2.466,-10.627 -5.818,-11.361c-1.32,-0.288 -2.85,-0.664 -3.4,-0.835c-0.55,-0.171 -1.81,-0.531 -2.8,-0.8c-10.558,-2.865 -12.709,-4.235 -17.593,-11.204c-0.539,-0.77 -1.2,-1.626 -1.468,-1.902c-0.267,-0.277 -0.601,-0.862 -0.74,-1.3c-0.139,-0.439 -0.4,-0.798 -0.579,-0.798c-0.18,0 -0.43,-0.315 -0.556,-0.7c-0.126,-0.385 -0.778,-1.6 -1.45,-2.7c-5.737,-9.397 -6.695,-15.144 -2.301,-13.806c0.928,0.283 2.317,0.695 3.087,0.915c0.77,0.221 1.76,0.537 2.2,0.703c0.44,0.165 1.7,0.579 2.8,0.918c10.259,3.167 27.908,10.471 31.286,12.946c1.339,0.982 2.294,2.677 2.662,4.724c0.366,2.033 1.344,6.626 2.299,10.8c0.201,0.88 0.536,2.5 0.743,3.6c0.208,1.1 0.548,2.81 0.757,3.8c0.838,3.979 1.515,7.504 3.227,16.8c1.661,9.022 2.445,10.739 6.026,13.2c0.77,0.529 1.49,1.063 1.6,1.186c0.373,0.419 4.196,3.476 4.766,3.81c1.131,0.664 0.13,-27.347 -1.579,-44.196c-1.301,-12.827 -2.77,-22.577 -5.2,-34.5c-0.213,-1.045 -0.559,-2.755 -0.769,-3.8c-0.459,-2.285 -1.038,-4.929 -1.556,-7.1c-0.21,-0.88 -0.577,-2.5 -0.817,-3.6c-0.239,-1.1 -0.602,-2.63 -0.805,-3.4c-2.097,-7.926 -4.673,-16.678 -6.475,-22c-3.095,-9.142 -3.354,-9.565 -4.99,-8.112m-118.376,31.903c-16.979,2.172 -28.77,8.364 -37.329,19.603c-1.008,1.323 -1.945,2.496 -2.081,2.606c-0.395,0.317 -3.589,5.129 -3.589,5.406c0,0.137 -0.507,1.002 -1.127,1.922c-1.912,2.836 -6.073,11.696 -6.067,12.916c0.006,1.18 0.825,3.921 1.32,4.415c0.151,0.151 0.274,0.684 0.274,1.184c0,0.5 0.18,1.021 0.4,1.157c0.22,0.136 0.4,0.856 0.4,1.6c0,0.744 0.18,1.464 0.4,1.6c0.22,0.136 0.4,0.741 0.4,1.344c0,0.603 0.162,1.267 0.359,1.476c0.197,0.209 0.46,1.1 0.584,1.98c0.124,0.88 0.418,2.68 0.652,4c1.192,6.706 1.39,9.448 1.386,19.2c-0.004,9.693 -0.262,13.334 -1.387,19.6c-0.238,1.32 -0.531,3.21 -0.652,4.2c-0.121,0.99 -0.382,1.971 -0.581,2.18c-0.198,0.209 -0.361,1.093 -0.361,1.965l0,1.584l12.1,-0.263c20.805,-0.452 25.35,-1.504 31.474,-7.289c11.131,-10.517 17.561,-12.475 30.911,-9.413c12.039,2.762 23.114,18.536 23.115,32.924c0,0.972 1.07,3.353 2.049,4.561c0.341,0.421 11.561,6.092 14.851,7.506c5.053,2.172 5.027,2.162 9.3,3.782c4.119,1.562 12.121,4.335 15.2,5.266c2.727,0.826 11.391,3.429 13.2,3.966c2.731,0.811 5.4,1.365 5.602,1.162c0.12,-0.119 -0.701,-5.057 -1.824,-10.974c-1.122,-5.916 -2.197,-11.747 -2.389,-12.957c-0.332,-2.095 -0.656,-3.918 -1.615,-9.1c-0.234,-1.265 -0.6,-3.38 -0.814,-4.7c-0.214,-1.32 -0.548,-3.3 -0.742,-4.4c-0.195,-1.1 -0.563,-3.26 -0.818,-4.8c-0.255,-1.54 -0.629,-3.745 -0.832,-4.9c-0.202,-1.155 -0.534,-3.045 -0.736,-4.2c-0.351,-2.002 -0.909,-5.338 -1.623,-9.7c-0.651,-3.975 -0.926,-5.208 -1.259,-5.635c-0.569,-0.728 -11.622,-2.164 -16.679,-2.166c-4.609,-0.002 -5.596,-0.585 -6.854,-4.05c-0.509,-1.402 -1.728,-4.439 -2.708,-6.749c-2.472,-5.826 -2.841,-6.669 -4.108,-9.4c-0.612,-1.32 -1.571,-3.39 -2.13,-4.6c-6.689,-14.481 -11.336,-23.999 -19.141,-39.2c-4.761,-9.275 -4.852,-9.403 -7.244,-10.303c-10.639,-4.001 -27.353,-5.833 -39.287,-4.306" fill="#ffffff" fill-rule="evenodd" id="path0"/>
   <path fill="#ffffff" fill-rule="evenodd" id="path1"/>
  </g>
 </g>
</svg>
